<?xml version="1.0" encoding="UTF-8" standalone="no"?>
<!-- Created with Inkscape (http://www.inkscape.org/) -->

<svg
   width="1200"
   height="640"
   viewBox="0 0 317.50002 169.33333"
   version="1.1"
   id="svg298"
   inkscape:version="1.2 (dc2aeda, 2022-05-15)"
   sodipodi:docname="hyper-social-card.svg"
   inkscape:export-filename="hyper-social-card.png"
   inkscape:export-xdpi="96"
   inkscape:export-ydpi="96"
   xmlns:inkscape="http://www.inkscape.org/namespaces/inkscape"
   xmlns:sodipodi="http://sodipodi.sourceforge.net/DTD/sodipodi-0.dtd"
   xmlns="http://www.w3.org/2000/svg"
   xmlns:svg="http://www.w3.org/2000/svg"
   xmlns:rdf="http://www.w3.org/1999/02/22-rdf-syntax-ns#"
   xmlns:cc="http://creativecommons.org/ns#"
   xmlns:dc="http://purl.org/dc/elements/1.1/">
  <defs
     id="defs292" />
  <sodipodi:namedview
     id="base"
     pagecolor="#ffffff"
     bordercolor="#666666"
     borderopacity="1.0"
     inkscape:pageopacity="1"
     inkscape:pageshadow="2"
     inkscape:zoom="0.40520454"
     inkscape:cx="492.34394"
     inkscape:cy="113.52291"
     inkscape:document-units="mm"
     inkscape:current-layer="layer1"
     showgrid="false"
     fit-margin-top="1"
     fit-margin-left="1"
     fit-margin-right="1"
     fit-margin-bottom="1"
     inkscape:window-width="1792"
     inkscape:window-height="978"
     inkscape:window-x="0"
     inkscape:window-y="25"
     inkscape:window-maximized="0"
     inkscape:showpageshadow="true"
     inkscape:pagecheckerboard="0"
     inkscape:deskcolor="#d1d1d1"
     showborder="true"
     borderlayer="true" />
  <metadata
     id="metadata295">
    <rdf:RDF>
      <cc:Work
         rdf:about="">
        <dc:format>image/svg+xml</dc:format>
        <dc:type
           rdf:resource="http://purl.org/dc/dcmitype/StillImage" />
      </cc:Work>
    </rdf:RDF>
  </metadata>
  <g
     inkscape:label="Layer 1"
     inkscape:groupmode="layer"
     id="layer1"
     transform="translate(-6.7205006,-43.039159)">
    <rect
       style="fill:#ffffff;fill-opacity:1;stroke:none;stroke-width:0;stroke-dasharray:none;stroke-opacity:1"
       id="rect260"
       width="314.07492"
       height="166.50542"
       x="7.3734608"
       y="44.34507" />
    <g
       id="g864"
       transform="matrix(6.8316105,0,0,6.8316105,-256.56305,-144.4411)"
       style="stroke-width:1.00829">
      <g
         transform="matrix(0.76162792,0,0,0.76162792,10.105056,8.9450604)"
         id="g852"
         style="stroke-width:1.00829">
        <circle
           r="0"
           style="fill:#ececec;fill-opacity:1;stroke-width:0.0387294"
           id="path838"
           cx="36.844212"
           cy="39.896645" />
        <g
           id="g844"
           transform="matrix(0.9096828,0,0,0.9096828,3.5843656,4.0583701)"
           style="stroke-width:1.00829">
          <path
             id="path5400"
             d="m 36.624258,40.642309 c -4.619799,0 -8.489418,-1.347734 -9.544859,-3.165326 -0.186549,0.320223 -0.296282,0.65142 -0.296282,0.996583 v 2.975785 c 0,2.298428 4.408313,4.162909 9.841141,4.162909 5.438814,0 9.846129,-1.864481 9.846129,-4.162909 v -2.975785 c 0,-0.345163 -0.109729,-0.67636 -0.295283,-0.996583 -1.058434,1.817592 -4.926058,3.165326 -9.550846,3.165326 z m 0,0"
             style="fill:#e86321;fill-opacity:1;fill-rule:nonzero;stroke:none;stroke-width:0.257499"
             inkscape:connector-curvature="0" />
          <path
             id="path5402"
             d="m 36.624258,46.648746 c -4.619799,0 -8.489418,-1.347732 -9.544859,-3.162333 -0.186549,0.316234 -0.296282,0.648429 -0.296282,0.992594 v 2.97778 c 0,2.298428 4.408313,4.160922 9.841141,4.160922 5.438814,0 9.846129,-1.862494 9.846129,-4.160922 v -2.97778 c 0,-0.344165 -0.109729,-0.67636 -0.295283,-0.992594 -1.058434,1.814601 -4.926058,3.162333 -9.550846,3.162333 z m 0,0"
             style="fill:#578232;fill-opacity:1;fill-rule:nonzero;stroke:none;stroke-width:0.257499"
             inkscape:connector-curvature="0" />
          <path
             id="path5404"
             d="m 46.203035,31.527405 c -0.19353,1.684917 -4.400332,3.030654 -9.578777,3.030654 -5.175453,0 -9.379261,-1.345737 -9.572791,-3.028657 -0.168592,0.304262 -0.26835,0.623488 -0.26835,0.953688 v 2.971795 c 0,2.301419 4.408313,4.163904 9.841141,4.163904 5.438814,0 9.846129,-1.862485 9.846129,-4.163904 V 32.48309 c 0,-0.3302 -0.09876,-0.649426 -0.267352,-0.955685 z m 0,0"
             style="fill:#263f7f;fill-opacity:1;fill-rule:nonzero;stroke:none;stroke-width:0.257499"
             inkscape:connector-curvature="0" />
          <path
             id="path5406"
             d="m 36.624258,33.615344 c 5.301148,0 9.594739,-1.408585 9.594739,-3.149364 0,-1.738784 -4.293591,-3.150362 -9.594739,-3.150362 -5.295162,0.002 -9.590748,1.411578 -9.590748,3.150362 0,1.740779 4.295586,3.149364 9.590748,3.149364 z m 0,0"
             style="fill:#1a1a1a;fill-opacity:1;fill-rule:nonzero;stroke:none;stroke-width:0.257499"
             inkscape:connector-curvature="0" />
        </g>
      </g>
    </g>
    <flowRoot
       xml:space="preserve"
       id="flowRoot5487"
       style="font-style:normal;font-weight:normal;font-size:40px;line-height:1.25;font-family:sans-serif;letter-spacing:0px;word-spacing:0px;fill:#000000;fill-opacity:1;stroke:none"
       transform="matrix(6.8882731,0,0,6.8882731,-174.47504,-178.69797)"><flowRegion
         id="flowRegion5489"><rect
           id="rect5491"
           width="2407.7488"
           height="600.2511"
           x="465.36322"
           y="1861.4529" /></flowRegion><flowPara
         id="flowPara5493" /></flowRoot>
    <flowRoot
       xml:space="preserve"
       id="flowRoot655"
       style="font-style:normal;font-weight:normal;font-size:40px;line-height:1.25;font-family:sans-serif;letter-spacing:0px;word-spacing:0px;fill:#000000;fill-opacity:1;stroke:none"
       transform="matrix(0.26935938,0,0,0.26935938,-274.1601,-884.73411)"><flowRegion
         id="flowRegion657"><rect
           id="rect659"
           width="318.75"
           height="50.000004"
           x="1668.7501"
           y="4374" /></flowRegion><flowPara
         id="flowPara661" /></flowRoot>
    <g
       id="g1311"
       transform="matrix(3.3414926,0,0,3.3414926,-474.26012,-1004.9075)"
       style="stroke-width:0.299269">
      <path
         d="m 175.29653,323.44234 v 18.88356 h -2.65948 v -8.24476 h -8.56414 v 8.24476 h -2.65946 v -18.88356 h 2.65946 v 8.16507 h 8.56414 v -8.16507 z"
         style="fill:#000000;fill-opacity:1;fill-rule:nonzero;stroke:none;stroke-width:0.105575"
         id="path201" />
      <path
         d="m 181.35553,328.38978 4.17597,10.79804 3.6167,-10.79804 h 2.65946 l -5.58528,15.1862 c -0.51382,1.38308 -1.15623,2.42017 -1.92777,3.11157 -0.77148,0.69194 -1.80427,1.03788 -3.09825,1.03788 -0.49676,0 -0.93122,-0.027 -1.30319,-0.0807 v -2.15427 c 0.2482,0.036 0.45209,0.0628 0.61128,0.0806 0.15968,0.0176 0.36378,0.0265 0.6123,0.0265 0.79727,0 1.41291,-0.23063 1.84712,-0.69187 0.43477,-0.46131 0.82077,-1.14402 1.15832,-2.0482 l 0.13265,-0.42553 -5.7455,-14.04225 z"
         style="fill:#000000;fill-opacity:1;fill-rule:nonzero;stroke:none;stroke-width:0.105575"
         id="path203" />
      <path
         d="m 206.85868,335.11797 c 0,1.2772 -0.17327,2.3855 -0.51943,3.32489 -0.34571,0.93958 -0.80674,1.72007 -1.3828,2.34101 -0.57631,0.62047 -1.24577,1.0815 -2.00838,1.3828 -0.76207,0.30129 -1.55985,0.45209 -2.39312,0.45209 -0.69193,0 -1.36596,-0.0977 -2.02163,-0.29286 -0.38984,-0.12376 -0.83327,-0.29214 -1.3297,-0.5052 v 5.82407 h -2.52683 v -19.25499 h 2.52683 v 1.40933 c 0.17751,-0.14213 0.35458,-0.27505 0.53164,-0.39907 0.46131,-0.31886 0.89119,-0.58063 1.28994,-0.78473 0.3993,-0.20411 0.794,-0.35465 1.18379,-0.45211 0.38985,-0.0972 0.79753,-0.1459 1.22363,-0.1459 1.64915,0 2.9656,0.61179 3.94934,1.83483 0.98433,1.22338 1.47672,2.97866 1.47672,5.26584 z m -9.20297,-3.82994 c -0.14159,0.0714 -0.29241,0.15154 -0.45209,0.23983 v 8.27122 c 0.053,0.018 0.10612,0.0355 0.15917,0.0531 0.33726,0.12448 0.65233,0.2222 0.945,0.29286 0.2924,0.0709 0.57606,0.12403 0.8511,0.15924 0.27476,0.0354 0.5628,0.053 0.86441,0.053 0.58501,0 1.13886,-0.10614 1.66137,-0.31841 0.52303,-0.21278 0.97969,-0.5319 1.36954,-0.95722 0.39031,-0.42584 0.69649,-0.96239 0.91843,-1.60937 0.22175,-0.64751 0.3327,-1.41468 0.3327,-2.30124 0,-1.63079 -0.33727,-2.84058 -1.0113,-3.62994 -0.67357,-0.78911 -1.54248,-1.18379 -2.60644,-1.18379 -0.31912,0 -0.63373,0.0313 -0.94397,0.0938 -0.31024,0.062 -0.63373,0.15924 -0.97048,0.2919 -0.33675,0.13265 -0.70923,0.31427 -1.11744,0.54495 z"
         style="fill:#000000;fill-opacity:1;fill-rule:nonzero;stroke:none;stroke-width:0.105575"
         id="path205" />
      <path
         d="m 212.06378,336.47426 c 0.14133,1.15264 0.52251,2.06604 1.14297,2.74007 0.78017,0.83352 1.91498,1.25015 3.40444,1.25015 0.85108,0 1.67567,-0.13291 2.47371,-0.39907 0.79806,-0.26582 1.59612,-0.6383 2.39412,-1.11741 v 2.31449 c -0.83345,0.44294 -1.67567,0.78426 -2.52675,1.02357 -0.8511,0.23931 -1.75528,0.35923 -2.71252,0.35923 -2.16347,0 -3.81726,-0.62048 -4.9607,-1.86142 -1.14375,-1.2414 -1.7155,-3.05899 -1.7155,-5.45258 0,-1.09935 0.14186,-2.10556 0.42558,-3.01869 0.28365,-0.9136 0.69597,-1.69401 1.23682,-2.34107 0.54086,-0.64699 1.19654,-1.15212 1.96755,-1.51545 0.77154,-0.3638 1.6359,-0.54596 2.59312,-0.54596 0.97565,0 1.83104,0.18216 2.56659,0.54596 0.73608,0.36333 1.35243,0.87767 1.84921,1.54301 0.49643,0.66487 0.86865,1.46699 1.11639,2.40638 0.24825,0.93965 0.37248,1.97676 0.37248,3.11157 v 0.95722 z m 3.69631,-6.43638 c -1.15269,0 -2.05682,0.44341 -2.7125,1.32971 -0.58526,0.79805 -0.90418,1.87984 -0.95728,3.24525 h 7.12725 c -0.0709,-1.34759 -0.36326,-2.42015 -0.8776,-3.21769 -0.56745,-0.90464 -1.42747,-1.35727 -2.57987,-1.35727 z"
         style="fill:#000000;fill-opacity:1;fill-rule:nonzero;stroke:none;stroke-width:0.105575"
         id="path207" />
      <path
         d="m 233.86423,331.04918 h -0.21228 c -0.53217,0 -1.0243,0.0531 -1.47665,0.15924 -0.45183,0.10614 -0.94371,0.34571 -1.47569,0.71845 -0.53216,0.3722 -1.1348,0.92201 -1.8083,1.64914 -0.3192,0.35465 -0.68272,0.77127 -1.09093,1.25015 v 7.49974 h -2.52683 v -13.93612 h 2.52683 v 4.20144 c 0.31887,-0.49599 0.61153,-0.93913 0.87761,-1.32976 0.60265,-0.86867 1.14807,-1.52898 1.63589,-1.98081 0.48782,-0.4523 0.96179,-0.74039 1.42258,-0.86434 0.4613,-0.12449 0.99322,-0.18674 1.59612,-0.18674 h 0.53165 z"
         style="fill:#000000;fill-opacity:1;fill-rule:nonzero;stroke:none;stroke-width:0.105575"
         id="path209" />
    </g>
    <g
       id="g1304"
       transform="matrix(2.8289117,0,0,2.8289117,-346.02727,-838.88567)"
       style="stroke-width:0.353494">
      <path
         d="m 220.0876,356.74161 c 0.23394,0 0.39134,0.23937 0.47247,0.71799 0,0.25001 0.12604,1.06205 0.37783,2.43596 0.17681,0.76437 0.43472,1.40959 0.77357,1.93535 0.2013,0.36589 0.30207,0.64804 0.30207,0.84757 v 0.13598 c 0,0.17066 -0.0888,0.2559 -0.26556,0.2559 -0.17144,0.13441 -0.2883,0.20156 -0.35086,0.20156 -0.33316,-0.14924 -0.63164,-0.46994 -0.89544,-0.96259 -0.135,-0.31179 -0.37941,-0.99347 -0.73326,-2.04488 l -0.11327,-0.16864 c -0.43478,0.80878 -0.81235,1.43584 -1.13303,1.8818 -0.39294,0.49651 -0.84451,0.74502 -1.35445,0.74502 -0.48659,0 -0.80317,-0.30435 -0.95012,-0.91366 l -0.017,-0.36432 c 0,-0.81922 0.43909,-1.83613 1.318,-3.0503 0.5457,-0.53628 1.17563,-0.99268 1.88943,-1.36999 0.19497,-0.18831 0.39142,-0.28275 0.58965,-0.28275 z m -2.5873,4.50174 h 0.0182 c 0.28752,0 0.57835,-0.30435 0.87226,-0.91358 0.5432,-0.80773 0.81491,-1.4382 0.81491,-1.89127 l -0.0181,-0.0222 h -0.0403 c -0.21278,0.0801 -0.59695,0.46587 -1.15212,1.15807 -0.34217,0.52531 -0.5131,1.07432 -0.5131,1.64679 z"
         style="fill:#263f7f;fill-opacity:1;fill-rule:nonzero;stroke:none;stroke-width:0.124704"
         id="path223" />
      <path
         d="m 191.37751,356.9802 c 0.23396,0 0.39137,0.23957 0.47275,0.71817 0,0.24977 0.12578,1.06187 0.37757,2.43573 0.17679,0.7646 0.43473,1.40983 0.77357,1.93566 0.20128,0.36555 0.30207,0.64798 0.30207,0.84725 v 0.13624 c 0,0.17066 -0.0888,0.2559 -0.26564,0.2559 -0.17144,0.13421 -0.28828,0.20128 -0.3508,0.20128 -0.33315,-0.14898 -0.63143,-0.46966 -0.89549,-0.96231 -0.13468,-0.31207 -0.37934,-0.99348 -0.73321,-2.04487 l -0.11305,-0.16865 c -0.43472,0.8085 -0.81255,1.43564 -1.13325,1.8816 -0.39292,0.49669 -0.84449,0.74496 -1.35446,0.74496 -0.48657,0 -0.80314,-0.30436 -0.95009,-0.9136 l -0.017,-0.36431 c 0,-0.81897 0.43937,-1.83595 1.31802,-3.05037 0.54568,-0.53603 1.17563,-0.9927 1.88943,-1.36975 0.19495,-0.18856 0.39142,-0.28293 0.58965,-0.28293 z m -2.58729,4.50174 h 0.0181 c 0.2875,0 0.57834,-0.30442 0.8725,-0.91366 0.54296,-0.80746 0.81465,-1.43812 0.81465,-1.89124 l -0.0181,-0.022 h -0.0403 c -0.21278,0.0799 -0.59696,0.46589 -1.15212,1.15806 -0.34217,0.52532 -0.51309,1.07434 -0.51309,1.64687 z"
         style="fill:#263f7f;fill-opacity:1;fill-rule:nonzero;stroke:none;stroke-width:0.124704"
         id="path225" />
      <path
         d="m 195.19087,352.76752 c 0.27608,0 0.47254,0.16681 0.58965,0.50056 -0.24035,1.7869 -0.36052,3.19674 -0.36052,4.22953 v 0.93554 l 0.24719,0.022 c 0.53428,0 1.12385,-0.0995 1.76882,-0.299 l 0.30566,-0.022 c 0.27626,0 0.41434,0.15942 0.41434,0.47809 0,0.47508 -0.26406,0.75592 -0.79191,0.84266 -0.23396,0.0763 -0.83862,0.15975 -1.81375,0.25029 0,0.0289 -0.0436,0.0431 -0.13035,0.0431 l 0.11226,1.43608 c 0,0.19875 -0.0375,0.37607 -0.11226,0.53192 0.0867,0.12736 0.13035,0.30161 0.13035,0.5225 v 0.22252 c 0,0.5003 -0.0436,0.76865 -0.13035,0.80516 l -0.47248,-0.0441 c -0.0538,0 -0.11842,0.0507 -0.19365,0.15229 -0.32376,-0.17012 -0.48527,-0.80059 -0.48527,-1.8923 0,-0.9853 -0.0439,-1.47816 -0.13115,-1.47816 -0.11072,-0.14114 -0.49442,-0.2118 -1.1514,-0.2118 -0.29391,0 -0.50259,-0.19033 -0.62603,-0.57149 v -0.0651 c 0.14715,-0.39109 0.48168,-0.58676 1.00366,-0.58676 0.27602,0.007 0.41408,0.0288 0.41408,0.0653 0.0926,0 0.16022,-0.0926 0.20228,-0.27809 l 0.0587,-0.0431 h 0.15714 l -0.0222,-0.29339 c 0,-1.26138 0.1079,-2.89061 0.32401,-4.88801 0.15924,-0.24264 0.36458,-0.36432 0.61642,-0.36432 z"
         style="fill:#263f7f;fill-opacity:1;fill-rule:nonzero;stroke:none;stroke-width:0.124704"
         id="path227" />
      <path
         d="m 200.4718,356.4304 c 0.7159,0 1.29785,0.5628 1.74582,1.68794 0.0822,0.3551 0.12351,0.63216 0.12351,0.83117 0,0.82686 -0.53244,1.49482 -1.5971,2.00275 v 0.0253 c 0.28804,0.57482 0.65595,0.8618 1.10365,0.8618 0.62355,0 1.28588,-0.59929 1.98774,-1.79812 0.43446,-0.58782 0.76488,-0.88172 0.99092,-0.88172 h 0.0406 l 0.0414,0.0558 v 0.25492 l -0.0207,0.0995 c 0.007,0.0411 0.0344,0.0697 0.0822,0.0865 0.0924,0 0.15257,-0.089 0.18038,-0.26706 h 0.0406 v 0.0252 c 0,0.28169 -0.20208,0.74476 -0.60616,1.38919 -0.0714,0.14872 -0.12098,0.31227 -0.14878,0.49011 -0.18805,0.0541 -0.28215,0.14721 -0.28215,0.27986 -0.38654,0.76514 -0.95469,1.30469 -1.70428,1.61904 -0.24642,0.0661 -0.447,0.0995 -0.60161,0.0995 h -0.20996 c -1.01006,0 -2.0025,-0.88093 -2.97737,-2.64282 l -0.10279,-2.01046 v -0.18593 c 0,-0.82307 0.22043,-1.33611 0.66182,-1.53897 0.47607,-0.3222 0.89374,-0.48345 1.25242,-0.48345 z m -0.63118,2.43825 c 0,0.49214 0.11483,0.83961 0.34466,1.04246 0.15361,0 0.39318,-0.14696 0.71843,-0.44087 0.0549,-0.20717 0.0822,-0.37248 0.0822,-0.49676 0,-0.50004 -0.18495,-0.84749 -0.55462,-1.04246 l -0.15976,-0.0239 c -0.21202,0 -0.31814,0.0806 -0.31814,0.24184 -0.0752,0.16557 -0.11274,0.4054 -0.11274,0.71975 z"
         style="fill:#263f7f;fill-opacity:1;fill-rule:nonzero;stroke:none;stroke-width:0.124704"
         id="path229" />
      <path
         d="m 171.22335,356.74978 c 0.71589,0 1.2979,0.56286 1.74588,1.68795 0.0822,0.35517 0.1235,0.63222 0.1235,0.83123 0,0.82713 -0.53249,1.49474 -1.59689,2.00276 v 0.0253 c 0.28783,0.57474 0.65569,0.8618 1.10372,0.8618 0.62329,0 1.28555,-0.59931 1.98741,-1.79813 0.43452,-0.58755 0.76488,-0.88172 0.99092,-0.88172 h 0.0405 l 0.0416,0.0558 v 0.25484 l -0.0209,0.0995 c 0.007,0.0411 0.0345,0.0699 0.0822,0.0865 0.0924,0 0.15257,-0.0888 0.18034,-0.26686 h 0.0405 v 0.025 c 0,0.28164 -0.202,0.7447 -0.6059,1.38913 -0.0717,0.1488 -0.12116,0.31234 -0.14899,0.49012 -0.18802,0.0541 -0.28215,0.14747 -0.28215,0.28012 -0.38651,0.76514 -0.95448,1.3045 -1.70399,1.61885 -0.24675,0.066 -0.44728,0.0995 -0.60161,0.0995 h -0.21024 c -1.01007,0 -2.00248,-0.88068 -2.97735,-2.64263 l -0.10281,-2.01038 v -0.18601 c 0,-0.82302 0.22045,-1.33611 0.66182,-1.53917 0.47606,-0.32199 0.89368,-0.4835 1.25237,-0.4835 z m -0.63117,2.43826 c 0,0.49219 0.11482,0.83992 0.34473,1.04246 0.15353,0 0.3931,-0.14697 0.71868,-0.44087 0.0546,-0.20691 0.0819,-0.37249 0.0819,-0.49643 0,-0.5003 -0.18477,-0.84785 -0.55469,-1.04247 l -0.1597,-0.0242 c -0.21201,0 -0.31815,0.0809 -0.31815,0.24185 -0.0752,0.16557 -0.11278,0.40539 -0.11278,0.71969 z"
         style="fill:#263f7f;fill-opacity:1;fill-rule:nonzero;stroke:none;stroke-width:0.124704"
         id="path231" />
      <path
         d="m 164.83498,353.92499 c 0.002,0.11228 0.0941,0.20567 0.27881,0.27889 0.13345,0.0924 0.22325,0.65797 0.26897,1.6971 l 0.006,2.14081 c 0.009,1.03096 0.37756,2.24233 1.10542,3.63303 0.28985,0.3291 0.43576,0.57071 0.43733,0.72432 l 0.024,0.15637 c 0.002,0.0898 -0.11913,0.30845 -0.36105,0.65618 l -0.33905,0.002 c -0.4965,0.005 -0.85364,-0.32146 -1.07125,-0.98092 -0.0993,-0.25774 -0.26687,-0.51206 -0.50363,-0.76235 -0.17935,0.48038 -0.5756,0.92588 -1.18966,1.33611 -0.71974,0.37424 -1.53969,0.56588 -2.45942,0.57378 -0.36511,-0.26073 -0.54779,-0.4018 -0.54779,-0.42322 -0.0763,-0.36132 -0.11534,-0.61185 -0.11632,-0.75241 v -0.13037 c -0.004,-0.41329 0.43244,-1.07996 1.31004,-2.00021 0.83046,-0.71511 1.5007,-1.10777 2.0102,-1.17764 0.17497,-0.0842 0.26171,-0.20717 0.26073,-0.36922 -0.17653,-1.69147 -0.26686,-2.81961 -0.27071,-3.38425 l -0.006,-0.60799 0.71405,-0.5355 c 0.0773,-0.0467 0.14643,-0.0707 0.20666,-0.0722 z m -2.59004,8.13301 c 0.62451,-0.005 1.132,-0.50746 1.52284,-1.50656 0.0691,-0.14695 0.10411,-0.25994 0.10411,-0.33903 -0.68096,0.22454 -1.1731,0.60386 -1.47646,1.13734 -0.22782,0.38274 -0.34055,0.61205 -0.33905,0.68807 z"
         style="fill:#263f7f;fill-opacity:1;fill-rule:nonzero;stroke:none;stroke-width:0.124704"
         id="path233" />
      <path
         d="m 168.19193,354.90371 c 0.3702,-0.004 0.59298,0.0857 0.66796,0.26863 l 0.0663,0.2689 c 0.002,0.27685 -0.29038,0.47043 -0.87461,0.57991 l -0.15661,0.002 c -0.42839,-0.025 -0.64347,-0.15283 -0.646,-0.38299 l -0.022,-0.0865 v -0.11834 c 0.10816,-0.35008 0.38705,-0.52767 0.83661,-0.53146 z m -0.0663,2.20072 c 0.28752,-0.002 0.43193,0.0697 0.43343,0.21663 0.1766,0.95495 0.26941,1.95914 0.27887,3.01126 l 0.006,0.63195 -0.0222,2.32907 c -0.11939,0.0803 -0.29287,0.14467 -0.52146,0.1926 l -0.16048,0.17451 h -0.0222 c -0.1258,0.002 -0.24186,-0.0931 -0.34702,-0.28267 0.002,0.0906 -0.013,0.13624 -0.0421,0.13624 -0.22481,-0.19391 -0.34009,-0.61027 -0.34524,-1.24989 l 0.1766,-2.64798 c -0.0322,-0.3477 -0.0513,-0.88118 -0.0562,-1.60093 -0.006,-0.60285 0.20156,-0.90668 0.62177,-0.91079 z"
         style="fill:#263f7f;fill-opacity:1;fill-rule:nonzero;stroke:none;stroke-width:0.124704"
         id="path235" />
      <path
         d="m 208.05679,356.63986 c 0.46405,0.11149 0.69675,0.18673 0.69825,0.22683 0.19489,0.44034 0.37196,0.98655 0.53146,1.63889 0.31303,2.01425 0.55234,3.33376 0.71817,3.95836 0.0467,-0.002 0.0865,0.13441 0.11834,0.40715 v 0.0421 c 0.002,0.24492 -0.15434,0.36811 -0.47122,0.37118 h -0.0423 c -0.45642,0.004 -0.68501,-0.0783 -0.68604,-0.2467 -0.22071,-0.43981 -0.40083,-0.98099 -0.53963,-1.62314 l -0.4995,-2.84262 h -0.0202 c -0.50154,0.62197 -1.08838,1.82367 -1.75934,3.60494 -0.27988,0.58195 -0.43472,0.87891 -0.46534,0.89093 -0.002,-0.0472 -0.0758,-0.0778 -0.22273,-0.0923 l -0.31891,0.004 c -0.1324,0.002 -0.19981,-0.0643 -0.20079,-0.19666 l -0.2587,-0.45138 c 0.1926,-0.72073 0.28091,-1.9831 0.26477,-3.78762 0.30084,-0.18575 0.45798,-0.299 0.47149,-0.33903 0,-0.0653 0.0301,-0.0982 0.0903,-0.0982 0.52813,0.0681 0.79297,0.14388 0.79447,0.22657 l -0.0622,0.19874 0.022,0.022 h 0.0222 c 0.2847,-0.27529 0.54365,-0.63197 0.7763,-1.06931 0.37713,-0.56024 0.72334,-0.84162 1.0392,-0.84468 z"
         style="fill:#263f7f;fill-opacity:1;fill-rule:nonzero;stroke:none;stroke-width:0.124704"
         id="path237" />
      <path
         d="m 225.72618,356.53398 c 0.46405,0.11123 0.69675,0.18648 0.69825,0.22678 0.19515,0.44039 0.37196,0.98634 0.53172,1.63896 0.31279,2.01423 0.55208,3.33375 0.71819,3.95808 0.0467,-0.002 0.0862,0.13441 0.11834,0.40741 v 0.0422 c 0.002,0.24466 -0.15459,0.36809 -0.47144,0.3709 h -0.0421 c -0.4564,0.004 -0.68525,-0.0781 -0.68631,-0.24669 -0.22068,-0.43982 -0.40056,-0.98099 -0.53955,-1.62289 l -0.49957,-2.84286 h -0.0201 c -0.50136,0.62197 -1.08819,1.82365 -1.75941,3.60519 -0.27985,0.58168 -0.43472,0.87867 -0.46535,0.89068 -0.002,-0.0472 -0.0758,-0.0776 -0.22272,-0.0921 l -0.31892,0.004 c -0.13239,0.002 -0.19978,-0.064 -0.2005,-0.19645 l -0.25897,-0.45157 c 0.19261,-0.72073 0.28091,-1.9831 0.26484,-3.78762 0.30103,-0.1855 0.45792,-0.29874 0.47143,-0.33905 0,-0.0651 0.0301,-0.0982 0.0903,-0.0982 0.52811,0.0681 0.79295,0.14389 0.79447,0.22683 l -0.0622,0.19848 0.022,0.0222 h 0.0222 c 0.28497,-0.27549 0.54368,-0.6319 0.77638,-1.06949 0.37705,-0.55999 0.72328,-0.84136 1.03913,-0.84444 z"
         style="fill:#263f7f;fill-opacity:1;fill-rule:nonzero;stroke:none;stroke-width:0.124704"
         id="path239" />
      <path
         d="m 231.45685,356.98328 c 0.29391,-0.002 0.56587,0.0763 0.81465,0.23675 -0.0281,0.0513 -0.0416,0.12834 -0.0401,0.23264 l 0.1143,0.27301 0.002,0.13441 c -0.12456,0.25668 -0.39292,0.45341 -0.80473,0.58965 -0.41865,0.1301 -0.6901,0.30461 -0.81438,0.52374 -0.15152,0.34393 -0.22624,0.61792 -0.22474,0.82255 l 0.002,0.13449 c 0.002,0.41708 0.24931,0.66481 0.74039,0.74215 l 0.3069,-0.002 c 0.48555,-0.004 1.31443,-0.27685 2.48751,-0.81849 0.50572,-0.21658 0.83554,-0.32551 0.99119,-0.32701 h 0.0421 c 0.25381,0.24236 0.38522,0.42426 0.39313,0.54567 -0.0135,0.0832 -0.22958,0.32455 -0.64805,0.72432 -0.0898,0.20053 -0.19384,0.30182 -0.31277,0.30287 -1.32717,0.80641 -2.45766,1.21364 -3.39243,1.2218 -1.01032,0.008 -1.69125,-0.46745 -2.04435,-1.42644 l -0.0482,-0.49546 -0.002,-0.2227 c -0.0109,-1.10602 0.43393,-2.05278 1.334,-2.84086 0.35721,-0.22963 0.7014,-0.34701 1.03331,-0.35105 z"
         style="fill:#263f7f;fill-opacity:1;fill-rule:nonzero;stroke:none;stroke-width:0.124704"
         id="path241" />
      <path
         d="m 229.06275,352.915 c 0.27269,-0.002 0.41023,0.0931 0.4133,0.28673 0.10816,0.46462 0.16426,0.9465 0.16836,1.44662 l -0.12833,3.33016 0.004,0.34491 c 0.008,1.01138 0.19234,2.39436 0.55358,4.14894 l 0.002,0.24257 c 0.002,0.28344 -0.0773,0.44602 -0.23877,0.48756 -0.10025,0.002 -0.31199,0.0462 -0.63399,0.13447 -0.0842,-0.0681 -0.22964,-0.15844 -0.43524,-0.27071 -0.40925,-2.08898 -0.61996,-3.7807 -0.63197,-5.07572 l -0.004,-0.62994 c -0.008,-0.91975 0.0747,-1.85378 0.24872,-2.80055 -0.0431,0 -0.0837,-0.15715 -0.12248,-0.4715 l -0.1783,-0.11834 c 0.0906,0 0.16531,-0.27197 0.22448,-0.81642 0.24983,-0.15669 0.47405,-0.23578 0.67227,-0.23878 z"
         style="fill:#263f7f;fill-opacity:1;fill-rule:nonzero;stroke:none;stroke-width:0.124704"
         id="path243" />
      <path
         d="m 185.10899,354.0148 c 0.002,0.11254 0.0944,0.20567 0.27889,0.27889 0.13343,0.0924 0.22325,0.65823 0.26888,1.69736 l 0.006,2.14055 c 0.009,1.03122 0.37762,2.24233 1.10522,3.63329 0.29011,0.32884 0.43602,0.57071 0.43759,0.72406 l 0.0239,0.15661 c 0.002,0.0898 -0.11938,0.30847 -0.36104,0.65594 l -0.33905,0.002 c -0.49671,0.005 -0.85363,-0.32148 -1.07125,-0.98094 -0.0995,-0.25797 -0.26688,-0.51204 -0.50363,-0.76233 -0.17962,0.48038 -0.57588,0.92588 -1.18968,1.33611 -0.71975,0.37398 -1.53967,0.56562 -2.45968,0.57378 -0.3651,-0.26099 -0.54751,-0.4018 -0.54751,-0.4235 -0.0763,-0.36104 -0.1156,-0.61185 -0.11632,-0.75213 v -0.13037 c -0.004,-0.41331 0.43217,-1.07995 1.30978,-2.0002 0.83071,-0.71538 1.5007,-1.10804 2.0102,-1.17765 0.17523,-0.0842 0.26197,-0.20719 0.26099,-0.36922 -0.17655,-1.69173 -0.26688,-2.81968 -0.27099,-3.38425 l -0.006,-0.60799 0.71406,-0.53578 c 0.0773,-0.0464 0.14644,-0.0707 0.20665,-0.0722 z m -2.58977,8.13327 c 0.62425,-0.005 1.13199,-0.50774 1.52256,-1.50682 0.0692,-0.14697 0.10436,-0.2597 0.10436,-0.33905 -0.6812,0.22474 -1.17308,0.60388 -1.47672,1.13762 -0.22753,0.38267 -0.34026,0.61179 -0.33876,0.68807 z"
         style="fill:#263f7f;fill-opacity:1;fill-rule:nonzero;stroke:none;stroke-width:0.124704"
         id="path245" />
      <path
         d="m 211.85968,352.12942 c 0.25923,-0.002 0.41232,0.16459 0.45948,0.49749 v 0.0421 c 0,0.0794 -0.0854,0.46359 -0.25485,1.15369 -0.18752,1.17713 -0.27785,2.13004 -0.27093,2.85874 l 0.002,0.15635 -0.022,0.0865 0.024,0.0921 v 0.18268 c 0.004,0.45647 0.0671,0.92489 0.19059,1.40633 0.6044,-0.75039 1.3922,-1.12946 2.36327,-1.13737 0.74339,0.0375 1.37283,0.10966 1.88794,0.21658 0.16427,0.40821 0.24871,0.80439 0.25256,1.18967 v 0.0961 c 0.0122,1.29097 -0.67611,2.4651 -2.0642,3.52285 -0.77586,0.47757 -1.50553,0.71869 -2.18877,0.72432 l -0.13448,0.002 c -0.48547,0.004 -0.94775,-0.20613 -1.38606,-0.62988 -0.11562,-0.3692 -0.17425,-0.70825 -0.1766,-1.01724 l 0.0582,-1.40213 -0.16048,-2.86691 -0.002,-0.25283 c -0.007,-0.71512 0.12475,-2.07244 0.3952,-4.07055 0.15637,-0.56182 0.45588,-0.84451 0.89877,-0.84854 z m 0.40925,9.59563 c 1.77593,-0.29698 2.65868,-1.05238 2.64824,-2.26708 l -0.0242,-0.31683 c -0.33041,-0.0549 -0.57965,-0.0814 -0.74829,-0.0804 -0.85599,0.007 -1.41825,0.50774 -1.68723,1.50271 -0.0936,0.29594 -0.16399,0.68298 -0.21068,1.1616 z"
         style="fill:#263f7f;fill-opacity:1;fill-rule:nonzero;stroke:none;stroke-width:0.124704"
         id="path247" />
    </g>
  </g>
</svg>
