<?xml version="1.0" encoding="UTF-8"?>
<svg width="137.61mm" height="169.4mm" version="1.1" viewBox="0 0 137.61 169.4" xmlns="http://www.w3.org/2000/svg" xmlns:cc="http://creativecommons.org/ns#" xmlns:dc="http://purl.org/dc/elements/1.1/" xmlns:rdf="http://www.w3.org/1999/02/22-rdf-syntax-ns#">
 <g transform="translate(299.37 26.581)">
  <path d="m-230.58 66.217c-31.822 0-58.477-9.2836-65.748-21.804-1.285 2.2058-2.0409 4.4872-2.0409 6.8647v20.498c0 15.832 30.366 28.675 67.788 28.675 37.464 0 67.823-12.843 67.823-28.675v-20.498c0-2.3776-0.75584-4.659-2.034-6.8647-7.2908 12.52-33.932 21.804-65.789 21.804z" style="fill:#e86321"/>
  <path d="m-230.58 107.59c-31.822 0-58.477-9.2836-65.748-21.783-1.285 2.1783-2.0409 4.4666-2.0409 6.8373v20.512c0 15.832 30.366 28.662 67.788 28.662 37.464 0 67.823-12.829 67.823-28.662v-20.512c0-2.3707-0.75584-4.659-2.034-6.8373-7.2908 12.499-33.932 21.783-65.789 21.783z" style="fill:#578232"/>
  <path d="m-164.6 3.4313c-1.3331 11.606-30.311 20.876-65.981 20.876-35.65 0-64.607-9.2698-65.94-20.862-1.1613 2.0958-1.8485 4.2948-1.8485 6.5693v20.471c0 15.853 30.366 28.682 67.788 28.682 37.464 0 67.823-12.829 67.823-28.682v-20.471c0-2.2745-0.68028-4.4734-1.8416-6.583z" style="fill:#263f7f"/>
  <path d="m-230.58 17.814c36.516 0 66.091-9.7027 66.091-21.694 0-11.977-29.575-21.701-66.091-21.701-36.475 0.01378-66.064 9.7233-66.064 21.701 0 11.991 29.589 21.694 66.064 21.694z" style="fill:#303030"/>
 </g>
</svg>
