<?xml version="1.0" encoding="iso-8859-1"?>
<!-- Uploaded to: SVG Repo, www.svgrepo.com, Generator: SVG Repo Mixer Tools -->
<svg height="800px" width="800px" version="1.1" id="Capa_1" xmlns="http://www.w3.org/2000/svg" xmlns:xlink="http://www.w3.org/1999/xlink" 
	 viewBox="0 0 502.164 502.164" xml:space="preserve">
<g>
	<g>
		<path style="fill:#5D647F;" d="M395.078,232.257h-288c-4.422,0-8,3.582-8,8v57.262c0,48.637,66.766,86.738,152,86.738
			s152-38.102,152-86.738v-57.262C403.078,235.839,399.5,232.257,395.078,232.257z"/>
	</g>
	<g>
		<path style="fill:#5C546A;" d="M251.328,232.257h-144.25c-4.422,0-8,3.582-8,8v57.262c0,48.637,66.766,86.738,152,86.738
			c0.084,0,0.166-0.007,0.25-0.007V232.257z"/>
	</g>
	<g>
		<path style="fill:#527992;" d="M482.773,146.851L279.406,59.686c-18-7.711-38.672-7.707-56.687,0.02l-203.32,87.137
			C7.43,151.972,0,163.245,0,176.261c0,13.012,7.43,24.273,19.391,29.398l203.359,87.164c8.992,3.852,18.648,5.777,28.312,5.777
			c9.68,0,19.359-1.93,28.375-5.797l203.32-87.137c11.969-5.125,19.406-16.398,19.406-29.414
			C502.164,163.241,494.734,151.976,482.773,146.851z"/>
	</g>
	<g>
		<g>
			<path style="fill:#5C546A;" d="M51.078,344.257c-4.422,0-8-3.582-8-8V214.987c0-7.805,5.578-14.434,13.266-15.766l161.367-28.066
				c4.352-0.75,8.492,2.16,9.25,6.512c0.758,4.352-2.156,8.496-6.516,9.254L59.078,214.987v121.269
				C59.078,340.675,55.5,344.257,51.078,344.257z"/>
		</g>
	</g>
	<g>
		<circle style="fill:#FF9600;" cx="51.078" cy="344.257" r="16"/>
	</g>
	<g>
		<path style="fill:#FF9600;" d="M219.078,168.257v16c0,8.836,14.327,16,32,16s32-7.164,32-16v-16H219.078z"/>
	</g>
	<g>
		<ellipse style="fill:#FFD200;" cx="251.078" cy="168.257" rx="32" ry="16"/>
	</g>
	<g>
		<path style="fill:#FFD200;" d="M34.639,376.19l-5.758,63.342c-0.426,4.685,3.263,8.724,7.967,8.724h30.479
			c4.704,0,8.393-4.039,7.967-8.724l-5.758-63.342c-0.82-9.024-8.387-15.934-17.448-15.934h-0.001
			C43.026,360.257,35.46,367.166,34.639,376.19z"/>
	</g>
</g>
</svg>